<svg width="24" height="24" viewBox="0 0 24 24" fill="none" xmlns="http://www.w3.org/2000/svg">
<path d="M14.1213 14.1213C14.6839 13.5587 15 12.7956 15 12C15 11.2044 14.6839 10.4413 14.1213 9.87868C13.5587 9.31607 12.7956 9 12 9C11.2043 9 10.4413 9.31607 9.87865 9.87868C9.31604 10.4413 8.99997 11.2044 8.99997 12C8.99997 12.7956 9.31604 13.5587 9.87865 14.1213C10.4413 14.6839 11.2043 15 12 15C12.7956 15 13.5587 14.6839 14.1213 14.1213Z" fill="#B8BBC1"/>
<path fill-rule="evenodd" clip-rule="evenodd" d="M12 4C7.65517 4 4.04626 6.30797 1.99862 9.73483C1.16582 11.1286 1.16582 12.8714 1.99862 14.2652C4.04626 17.692 7.65517 20 12 20C16.3448 20 19.9537 17.692 22.0013 14.2652C22.8341 12.8714 22.8341 11.1286 22.0013 9.73483C19.9537 6.30797 16.3448 4 12 4ZM3.71548 10.7607C5.42998 7.89135 8.41171 6 12 6C15.5882 6 18.57 7.89135 20.2845 10.7607C20.7397 11.5226 20.7397 12.4774 20.2845 13.2393C18.57 16.1086 15.5882 18 12 18C8.41171 18 5.42998 16.1086 3.71548 13.2393C3.26021 12.4774 3.26021 11.5226 3.71548 10.7607Z" fill="#B8BBC1"/>
</svg>
