<svg width="47" height="24" viewBox="0 0 47 24" fill="none" xmlns="http://www.w3.org/2000/svg">
<path fill-rule="evenodd" clip-rule="evenodd" d="M8.55586 3.68509C10.2004 3.0039 12.01 2.82567 13.7558 3.17294C15.5017 3.5202 17.1053 4.37737 18.364 5.63604C19.6226 6.89471 20.4798 8.49836 20.8271 10.2442C21.1743 11.99 20.9961 13.7996 20.3149 15.4442C19.6337 17.0887 18.4802 18.4943 17.0001 19.4832C15.5201 20.4722 13.78 21 12 21C10.6435 21 9.3538 20.6989 8.19777 20.1594L4.20104 20.9796C3.87177 21.0472 3.53059 20.9448 3.29291 20.7071C3.05523 20.4694 2.95286 20.1282 3.02043 19.799L3.84057 15.8024C3.30027 14.6456 3.00002 13.3572 3.00002 12C3.00002 10.22 3.52786 8.47991 4.51679 6.99987C5.50572 5.51983 6.91133 4.36628 8.55586 3.68509ZM13.3656 5.13451C12.0078 4.86441 10.6003 5.00303 9.32123 5.53285C8.04215 6.06266 6.9489 6.95987 6.17973 8.11101C5.41056 9.26216 5.00002 10.6155 5.00002 12C5.00002 13.1594 5.28011 14.2484 5.77707 15.2089C5.88222 15.4122 5.91449 15.6453 5.86849 15.8695L5.28443 18.7156L8.13055 18.1315C8.3546 18.0855 8.58764 18.1178 8.79082 18.2228C9.75084 18.7191 10.8417 19 12 19C13.3845 19 14.7379 18.5895 15.889 17.8203C17.0401 17.0511 17.9374 15.9579 18.4672 14.6788C18.997 13.3997 19.1356 11.9922 18.8655 10.6344C18.5954 9.2765 17.9287 8.02922 16.9498 7.05026C15.9708 6.07129 14.7235 5.4046 13.3656 5.13451Z" fill="#B8BBC1"/>
<path d="M34.9325 17.5V7.93L32.9 9.1525V7.915L34.9325 6.7H36.05V17.5H34.9325ZM38.5947 17.4925L38.6022 16.4875L43.4847 12.0775C43.9047 11.6975 44.1822 11.3375 44.3172 10.9975C44.4572 10.6525 44.5272 10.2925 44.5272 9.9175C44.5272 9.4725 44.4222 9.07 44.2122 8.71C44.0022 8.35 43.7197 8.065 43.3647 7.855C43.0097 7.64 42.6122 7.5325 42.1722 7.5325C41.7122 7.5325 41.3022 7.6425 40.9422 7.8625C40.5822 8.0825 40.2972 8.3725 40.0872 8.7325C39.8822 9.0925 39.7822 9.485 39.7872 9.91H38.6622C38.6622 9.255 38.8172 8.6675 39.1272 8.1475C39.4372 7.6275 39.8572 7.22 40.3872 6.925C40.9172 6.625 41.5172 6.475 42.1872 6.475C42.8422 6.475 43.4297 6.63 43.9497 6.94C44.4747 7.245 44.8872 7.66 45.1872 8.185C45.4922 8.705 45.6447 9.285 45.6447 9.925C45.6447 10.375 45.5897 10.7725 45.4797 11.1175C45.3747 11.4575 45.2072 11.775 44.9772 12.07C44.7522 12.36 44.4647 12.66 44.1147 12.97L39.7797 16.885L39.6072 16.435H45.6447V17.4925H38.5947Z" fill="#7C828D"/>
</svg>
