<svg width="21" height="20" viewBox="0 0 21 20" fill="none" xmlns="http://www.w3.org/2000/svg">
<path fill-rule="evenodd" clip-rule="evenodd" d="M11.3332 4.16667C8.34163 4.16667 5.9165 6.59179 5.9165 9.58333C5.9165 11.0793 6.52187 12.4324 7.50301 13.4135C8.48415 14.3946 9.83717 15 11.3332 15C14.3247 15 16.7498 12.5749 16.7498 9.58333C16.7498 6.59179 14.3247 4.16667 11.3332 4.16667ZM4.24984 9.58333C4.24984 5.67132 7.42115 2.5 11.3332 2.5C15.2452 2.5 18.4165 5.67132 18.4165 9.58333C18.4165 13.4953 15.2452 16.6667 11.3332 16.6667C9.67779 16.6667 8.15409 16.098 6.94837 15.1466L3.58909 18.5059C3.26366 18.8314 2.73602 18.8314 2.41058 18.5059C2.08514 18.1805 2.08514 17.6528 2.41058 17.3274L5.76986 13.9681C4.81847 12.7624 4.24984 11.2387 4.24984 9.58333Z" fill="#7FA489"/>
</svg>
