<svg width="48" height="48" viewBox="0 0 48 48" fill="none" xmlns="http://www.w3.org/2000/svg">
<path d="M18 26C18 27.1046 17.1046 28 16 28C14.8954 28 14 27.1046 14 26C14 24.8954 14.8954 24 16 24C17.1046 24 18 24.8954 18 26Z" fill="#EB9447"/>
<path d="M16 36C17.1046 36 18 35.1046 18 34C18 32.8954 17.1046 32 16 32C14.8954 32 14 32.8954 14 34C14 35.1046 14.8954 36 16 36Z" fill="#EB9447"/>
<path d="M26 26C26 27.1046 25.1046 28 24 28C22.8954 28 22 27.1046 22 26C22 24.8954 22.8954 24 24 24C25.1046 24 26 24.8954 26 26Z" fill="#EB9447"/>
<path d="M24 36C25.1046 36 26 35.1046 26 34C26 32.8954 25.1046 32 24 32C22.8954 32 22 32.8954 22 34C22 35.1046 22.8954 36 24 36Z" fill="#EB9447"/>
<path d="M34 26C34 27.1046 33.1046 28 32 28C30.8954 28 30 27.1046 30 26C30 24.8954 30.8954 24 32 24C33.1046 24 34 24.8954 34 26Z" fill="#EB9447"/>
<path d="M32 36C33.1046 36 34 35.1046 34 34C34 32.8954 33.1046 32 32 32C30.8954 32 30 32.8954 30 34C30 35.1046 30.8954 36 32 36Z" fill="#EB9447"/>
<path fill-rule="evenodd" clip-rule="evenodd" d="M18 10C15.2386 10 13 12.2386 13 15V17C13 19.7614 15.2386 22 18 22H30C32.7614 22 35 19.7614 35 17V15C35 12.2386 32.7614 10 30 10H18ZM17 15C17 14.4477 17.4477 14 18 14H30C30.5523 14 31 14.4477 31 15V17C31 17.5523 30.5523 18 30 18H18C17.4477 18 17 17.5523 17 17V15Z" fill="#EB9447"/>
<path fill-rule="evenodd" clip-rule="evenodd" d="M24.1621 2H23.8378C19.7327 1.99994 16.4273 1.99988 13.8288 2.38794C11.1153 2.79319 8.88931 3.65745 7.14962 5.58985L7.14871 5.59086C5.43694 7.49484 4.69603 9.87847 4.34399 12.7877C3.99994 15.6309 3.99997 19.2653 4 23.8637V24.1363C3.99997 28.7347 3.99994 32.3696 4.34399 35.2128C4.69596 38.1215 5.43677 40.5053 7.14916 42.4077C8.88885 44.3414 11.1155 45.2063 13.8294 45.6118C16.4282 46.0001 19.7337 46.0001 23.8379 46H24.1623C28.2674 46.0001 31.5728 46.0001 34.1714 45.6118C36.8852 45.2062 39.1112 44.3413 40.8508 42.4077C42.5634 40.5061 43.3041 38.122 43.656 35.2135C44.0001 32.3701 44 28.7348 44 24.1363V23.8637C44 19.2653 44.0001 15.6304 43.656 12.787C43.304 9.87771 42.5627 7.49311 40.8504 5.58985C39.1106 3.65734 36.884 2.79316 34.1704 2.38794C31.5717 1.99988 28.2663 1.99994 24.1621 2ZM8.31502 13.2683C8.62188 10.7324 9.19868 9.29411 10.1224 8.26616C11.0187 7.27077 12.232 6.67078 14.4197 6.34407C16.6886 6.00522 19.6944 6.00001 24 6.00001C28.3046 6.00001 31.3104 6.00522 33.5796 6.34407C35.7676 6.6708 36.9814 7.27097 37.8776 8.26616C38.8011 9.29287 39.378 10.7307 39.685 13.2675C39.9965 15.8425 40 19.235 40 24C40 28.765 39.9965 32.158 39.685 34.733C39.378 37.2705 38.8008 38.7071 37.8781 39.7313L37.8772 39.7324C36.9808 40.7287 35.7678 41.3288 33.5801 41.6557C31.3113 41.9948 28.3057 42 24 42C19.6954 42 16.6896 41.9948 14.4206 41.6557C12.2325 41.3288 11.0187 40.7281 10.1224 39.7318C9.1991 38.7063 8.62201 37.2692 8.31502 34.7322C8.00345 32.1575 8 28.765 8 24C8 19.235 8.00345 15.843 8.31502 13.2683Z" fill="#EB9447"/>
</svg>
