<svg width="48" height="48" viewBox="0 0 48 48" fill="none" xmlns="http://www.w3.org/2000/svg">
<path d="M33.108 22.21C33.5823 21.9739 34.1309 21.9357 34.6333 22.1037C35.1358 22.2717 35.5511 22.6322 35.788 23.106C36.02 23.5816 36.056 24.1292 35.8885 24.6311C35.7209 25.133 35.3631 25.5491 34.892 25.79C31.604 27.43 27.62 28 24 28C20.38 28 16.396 27.43 13.108 25.79C12.6369 25.5491 12.2791 25.133 12.1115 24.6311C11.944 24.1292 11.98 23.5816 12.212 23.106C12.4489 22.6322 12.8642 22.2717 13.3667 22.1037C13.8691 21.9357 14.4177 21.9739 14.892 22.21C17.664 23.536 20.968 24 24 24C27.032 24 30.336 23.536 33.108 22.21Z" fill="#EB9447"/>
<path fill-rule="evenodd" clip-rule="evenodd" d="M17.577 5C13.958 5 10.6215 6.95525 8.85274 10.1125L3.27577 20.0674C2.43927 21.5605 2 23.2434 2 24.9549V33.0087C2 34.1747 2.33971 35.3154 2.9776 36.2914L5.58627 40.2826C6.69441 41.9781 8.58317 43 10.6087 43H11.7111C14.6934 43 17.1111 40.5823 17.1111 37.6C17.1111 36.8268 17.7379 36.2 18.5111 36.2H29.4889C30.2621 36.2 30.8889 36.8268 30.8889 37.6C30.8889 40.5823 33.3066 43 36.2889 43H37.3913C39.4168 43 41.3056 41.9781 42.4137 40.2826L45.0224 36.2914C45.6603 35.3154 46 34.1747 46 33.0087V24.9549C46 23.2434 45.5607 21.5605 44.7242 20.0674L39.1473 10.1125C37.3785 6.95525 34.042 5 30.423 5H17.577ZM12.3424 12.0675C13.4037 10.1731 15.4056 9 17.577 9H30.423C32.5944 9 34.5963 10.1731 35.6576 12.0675L41.2345 22.0224C41.7364 22.9183 42 23.928 42 24.9549V33.0087C42 33.3974 41.8868 33.7776 41.6741 34.103L39.0655 38.0942C38.6961 38.6594 38.0665 39 37.3913 39H36.2889C35.5157 39 34.8889 38.3732 34.8889 37.6C34.8889 34.6177 32.4712 32.2 29.4889 32.2H18.5111C15.5288 32.2 13.1111 34.6177 13.1111 37.6C13.1111 38.3732 12.4843 39 11.7111 39H10.6087C9.9335 39 9.30391 38.6594 8.93453 38.0942L6.32587 34.103C6.11324 33.7776 6 33.3974 6 33.0087V24.9549C6 23.928 6.26356 22.9183 6.76546 22.0224L12.3424 12.0675Z" fill="#EB9447"/>
</svg>
