<svg width="48" height="48" viewBox="0 0 48 48" fill="none" xmlns="http://www.w3.org/2000/svg">
<path fill-rule="evenodd" clip-rule="evenodd" d="M15 8C13.3431 8 12 9.34315 12 11C12 12.6569 13.3431 14 15 14C16.6569 14 18 12.6569 18 11C18 9.34315 16.6569 8 15 8ZM8 11C8 7.13401 11.134 4 15 4C18.866 4 22 7.13401 22 11C22 12.8907 21.2504 14.6064 20.0322 15.8659C20.9177 16.1916 21.7392 16.6038 22.4734 17.0933C23.0243 17.4606 23.541 17.8837 24 18.3574C24.459 17.8837 24.9757 17.4606 25.5266 17.0933C26.2608 16.6038 27.0823 16.1916 27.9678 15.8659C26.7496 14.6064 26 12.8907 26 11C26 7.13401 29.134 4 33 4C36.866 4 40 7.13401 40 11C40 12.8907 39.2504 14.6064 38.0322 15.8659C38.9177 16.1916 39.7392 16.6038 40.4734 17.0933C42.4596 18.4174 44 20.4664 44 23C44 24.1046 43.1046 25 42 25C40.8954 25 40 24.1046 40 23C40 22.2199 39.5257 21.2689 38.2546 20.4215C36.9974 19.5834 35.1455 19 33 19C30.8545 19 29.0026 19.5834 27.7454 20.4215C26.4743 21.2689 26 22.2199 26 23C26 24.1046 25.1046 25 24 25C22.8954 25 22 24.1046 22 23C22 22.2199 21.5257 21.2689 20.2546 20.4215C18.9974 19.5834 17.1455 19 15 19C12.8545 19 11.0026 19.5834 9.74544 20.4215C8.47433 21.2689 8 22.2199 8 23C8 24.1046 7.10457 25 6 25C4.89543 25 4 24.1046 4 23C4 20.4664 5.54039 18.4174 7.52664 17.0933C8.26085 16.6038 9.08234 16.1916 9.96783 15.8659C8.7496 14.6064 8 12.8907 8 11ZM33 8C31.3431 8 30 9.34315 30 11C30 12.6569 31.3431 14 33 14C34.6569 14 36 12.6569 36 11C36 9.34315 34.6569 8 33 8Z" fill="#EB9447"/>
<path fill-rule="evenodd" clip-rule="evenodd" d="M15 29C13.3431 29 12 30.3431 12 32C12 33.6569 13.3431 35 15 35C16.6569 35 18 33.6569 18 32C18 30.3431 16.6569 29 15 29ZM8 32C8 28.134 11.134 25 15 25C18.866 25 22 28.134 22 32C22 33.8907 21.2504 35.6064 20.0322 36.8659C20.9177 37.1916 21.7392 37.6038 22.4734 38.0933C23.0243 38.4606 23.541 38.8837 24 39.3574C24.459 38.8837 24.9757 38.4606 25.5266 38.0933C26.2608 37.6038 27.0823 37.1916 27.9678 36.8659C26.7496 35.6064 26 33.8907 26 32C26 28.134 29.134 25 33 25C36.866 25 40 28.134 40 32C40 33.8907 39.2504 35.6064 38.0322 36.8659C38.9177 37.1916 39.7392 37.6038 40.4734 38.0933C42.4596 39.4174 44 41.4664 44 44C44 45.1046 43.1046 46 42 46C40.8954 46 40 45.1046 40 44C40 43.2199 39.5257 42.2689 38.2546 41.4215C36.9974 40.5834 35.1455 40 33 40C30.8545 40 29.0026 40.5834 27.7454 41.4215C26.4743 42.2689 26 43.2199 26 44C26 45.1046 25.1046 46 24 46C22.8954 46 22 45.1046 22 44C22 43.2199 21.5257 42.2689 20.2546 41.4215C18.9974 40.5834 17.1455 40 15 40C12.8545 40 11.0026 40.5834 9.74544 41.4215C8.47433 42.2689 8 43.2199 8 44C8 45.1046 7.10457 46 6 46C4.89543 46 4 45.1046 4 44C4 41.4664 5.54039 39.4174 7.52664 38.0933C8.26085 37.6038 9.08234 37.1916 9.96783 36.8659C8.7496 35.6064 8 33.8907 8 32ZM33 29C31.3431 29 30 30.3431 30 32C30 33.6569 31.3431 35 33 35C34.6569 35 36 33.6569 36 32C36 30.3431 34.6569 29 33 29Z" fill="#EB9447"/>
</svg>
