<svg width="48" height="48" viewBox="0 0 48 48" fill="none" xmlns="http://www.w3.org/2000/svg">
<path d="M35.9999 13C35.9999 11.8954 35.1044 11 33.9999 11C32.8953 11 31.9999 11.8954 31.9999 13V15H29.9999C28.8953 15 27.9999 15.8954 27.9999 17C27.9999 18.1046 28.8953 19 29.9999 19H31.9999V21C31.9999 22.1046 32.8953 23 33.9999 23C35.1044 23 35.9999 22.1046 35.9999 21V19H37.9999C39.1044 19 39.9999 18.1046 39.9999 17C39.9999 15.8954 39.1044 15 37.9999 15H35.9999V13Z" fill="#EB9447"/>
<path fill-rule="evenodd" clip-rule="evenodd" d="M19.6573 5.71866C21.3956 6.62616 22.9243 7.74539 23.9999 8.67213C25.0755 7.74539 26.6042 6.62616 28.3424 5.71866C30.2629 4.71598 32.6544 3.85842 35.0668 4.02179C40.9211 4.41824 45.2505 8.95836 46.5687 14.4804C47.907 20.0865 46.2251 26.7981 40.2183 32.0157L40.205 32.0273L28.4965 41.8408C25.8952 44.0211 22.1047 44.0211 19.5034 41.8409L7.79469 32.0273L7.78138 32.0157C1.77461 26.7981 0.0927516 20.0865 1.431 14.4804C2.74918 8.95836 7.07862 4.41824 12.9329 4.02179C15.3453 3.85842 17.7368 4.71598 19.6573 5.71866ZM13.2032 8.01265C14.5572 7.92096 16.1736 8.4122 17.8061 9.26449C19.407 10.1003 20.8172 11.1753 21.6849 11.9643C22.3748 12.5915 23.2436 12.8318 23.9999 12.8318C24.7561 12.8318 25.6249 12.5915 26.3148 11.9643C27.1825 11.1753 28.5927 10.1003 30.1936 9.26449C31.8261 8.4122 33.4426 7.92096 34.7965 8.01265C38.5549 8.26716 41.6789 11.2236 42.678 15.4092C43.6563 19.5071 42.5222 24.7087 37.6083 28.9846L25.927 38.7752C24.8122 39.7096 23.1877 39.7096 22.0729 38.7752L10.3915 28.9846C5.47749 24.7088 4.34345 19.5071 5.32168 15.4092C6.32084 11.2236 9.44483 8.26716 13.2032 8.01265Z" fill="#EB9447"/>
</svg>
