<svg width="48" height="48" viewBox="0 0 48 48" fill="none" xmlns="http://www.w3.org/2000/svg">
<path fill-rule="evenodd" clip-rule="evenodd" d="M22.6207 2.55185C23.3931 1.81621 24.6069 1.81621 25.3793 2.55185L46.3793 22.5518C47.1792 23.3136 47.2101 24.5796 46.4483 25.3794C45.6865 26.1793 44.4206 26.2102 43.6207 25.4484L24 6.76203L4.37931 25.4484C3.57945 26.2102 2.3135 26.1793 1.55173 25.3794C0.789956 24.5796 0.820833 23.3136 1.62069 22.5518L22.6207 2.55185ZM8 28.0001C9.10457 28.0001 10 28.8955 10 30.0001L10 39.4286C10 40.1106 10.2709 40.7646 10.7532 41.2469C11.2354 41.7291 11.8895 42 12.5715 42H17V38.0001C17 34.1341 20.134 31.0001 24 31.0001C27.866 31.0001 31 34.1341 31 38.0001V42H35.4286C36.1106 42 36.7646 41.7291 37.2469 41.2469C37.7291 40.7646 38 40.1106 38 39.4286V30.0001C38 28.8956 38.8955 28.0001 40 28.0001C41.1046 28.0001 42 28.8956 42 30.0001V39.4286C42 41.1714 41.3077 42.8429 40.0753 44.0753C38.8429 45.3077 37.1714 46 35.4286 46H12.5715C10.8286 46 9.15713 45.3077 7.92475 44.0753C6.69236 42.8429 6.00002 41.1714 6.00002 39.4286L6 30.0001C6 28.8956 6.89543 28.0001 8 28.0001ZM27 42V38.0001C27 36.3433 25.6569 35.0001 24 35.0001C22.3431 35.0001 21 36.3433 21 38.0001V42H27Z" fill="#EB9447"/>
</svg>
