<svg width="48" height="48" viewBox="0 0 48 48" fill="none" xmlns="http://www.w3.org/2000/svg">
<path fill-rule="evenodd" clip-rule="evenodd" d="M39.5562 8.44377C30.9652 -0.147274 17.0348 -0.147274 8.44377 8.44377C-0.147274 17.0348 -0.147274 30.9652 8.44377 39.5562C17.0348 48.1472 30.9652 48.1472 39.5562 39.5562C48.1472 30.9652 48.1472 17.0348 39.5562 8.44377ZM35.2359 9.93569C28.6845 4.68876 19.3155 4.68875 12.7641 9.93567L15.6151 12.7866C20.5707 9.07068 27.4294 9.07067 32.3849 12.7866L35.2359 9.93569ZM9.9357 12.7641C4.68875 19.3155 4.68875 28.6845 9.93569 35.2359L12.7867 32.3848C9.0708 27.4293 9.0708 20.5706 12.7867 15.6151L9.9357 12.7641ZM12.7641 38.0643C19.3155 43.3112 28.6845 43.3112 35.2359 38.0643L32.3849 35.2132C27.4294 38.9291 20.5707 38.9291 15.6152 35.2132L12.7641 38.0643ZM38.0643 35.2358C43.3112 28.6845 43.3112 19.3155 38.0643 12.7641L35.2133 15.615C38.9293 20.5706 38.9293 27.4293 35.2133 32.3848L38.0643 35.2358ZM16.9294 16.929C20.8343 13.0232 27.1658 13.0232 31.0707 16.929C34.9764 20.8339 34.9767 27.1656 31.071 31.0705C27.1661 34.9763 20.8343 34.9766 16.9294 31.0708C13.0236 27.1659 13.0236 20.8339 16.9294 16.929Z" fill="#EB9447"/>
</svg>
