<svg width="24" height="24" viewBox="0 0 24 24" fill="none" xmlns="http://www.w3.org/2000/svg">
<path d="M7.55762 11.443C7.59566 11.3561 7.65141 11.2772 7.72163 11.2109C7.79129 11.1441 7.87416 11.091 7.96547 11.0548C8.05677 11.0186 8.15471 11 8.25362 11H15.7464C15.8453 11 15.9432 11.0186 16.0345 11.0548C16.1258 11.091 16.2087 11.1441 16.2784 11.2109C16.3486 11.2772 16.4043 11.3561 16.4424 11.443C16.4804 11.5299 16.5 11.6231 16.5 11.7172C16.5 11.8114 16.4804 11.9046 16.4424 11.9915C16.4043 12.0784 16.3486 12.1573 16.2784 12.2235L12.532 15.7891C12.4623 15.8559 12.3795 15.909 12.2882 15.9452C12.1968 15.9814 12.0989 16 12 16C11.9011 16 11.8032 15.9814 11.7118 15.9452C11.6205 15.909 11.5377 15.8559 11.468 15.7891L7.72163 12.2235C7.65141 12.1573 7.59566 12.0784 7.55762 11.9915C7.51959 11.9046 7.5 11.8114 7.5 11.7172C7.5 11.6231 7.51959 11.5299 7.55762 11.443Z" fill="white"/>
</svg>
