<svg width="121" height="36" viewBox="0 0 121 36" fill="none" xmlns="http://www.w3.org/2000/svg">
<path d="M47.5673 3.57861L47.6567 14.6105H45.0987L45.0093 3.57861H47.5673Z" fill="#474B52"/>
<path d="M55.7364 14.6105H53.1783L53.1072 5.83648H49.9896L49.9713 3.57861H58.7646L58.7829 5.83648H55.6653L55.7364 14.6105Z" fill="#474B52"/>
<path d="M62.3844 14.6105H59.7028L63.9155 3.57861H66.6044L70.9887 14.6105H68.3071L67.4901 12.4409H63.1662L62.3844 14.6105ZM63.9691 10.1831H66.6579L65.2842 6.56459L63.9691 10.1831Z" fill="#474B52"/>
<path d="M80.6816 14.6105H73.4145L73.325 3.57861H75.8831L75.9542 12.3527H80.6633L80.6816 14.6105Z" fill="#474B52"/>
<path d="M22.5406 10.183H19.8517L21.1668 6.56451L22.5406 10.183Z" fill="#EB9447"/>
<path d="M31.8094 8.96212H32.8559C33.5487 8.96212 34.0781 8.82728 34.4441 8.55761C34.8101 8.28304 34.991 7.89325 34.9869 7.38823C34.9829 6.89302 34.7957 6.51058 34.4253 6.24091C34.0549 5.97124 33.5233 5.8364 32.8305 5.8364H31.7841L31.8094 8.96212Z" fill="#EB9447"/>
<path fill-rule="evenodd" clip-rule="evenodd" d="M8.72174 0C4.79007 0 1.02636 3.17252 0.315267 7.08602L0.246571 7.46409C-0.803233 13.2417 3.05116 17.9254 8.85559 17.9254C10.622 17.9254 11.9066 19.1836 11.9066 20.9138V29.6401C11.9066 33.2358 14.5764 35.8507 18.2474 35.8507H30.6852C32.9996 35.8507 35.2323 34.0337 35.746 31.7319L40.7441 9.34105C41.8814 4.24572 38.5601 0 33.4367 0H8.72174ZM11.879 14.4119C12.5744 14.1275 13.1744 13.7353 13.679 13.2351L11.862 11.4112C11.5839 11.774 11.2447 12.0584 10.8442 12.2643C10.4486 12.4703 10.0134 12.5732 9.53864 12.5732C9.09777 12.5732 8.68767 12.485 8.30835 12.3085C7.92902 12.132 7.59759 11.8868 7.31405 11.573C7.03047 11.2543 6.80948 10.8866 6.65106 10.4698C6.49261 10.0481 6.41136 9.58726 6.40731 9.08715C6.40333 8.59684 6.47715 8.14085 6.62877 7.71919C6.78038 7.29752 6.99542 6.92979 7.27387 6.61599C7.55233 6.3022 7.87978 6.05704 8.25624 5.88053C8.63271 5.70402 9.04138 5.61577 9.48225 5.61577C9.95704 5.61577 10.3963 5.71873 10.8001 5.92466C11.2039 6.13059 11.5453 6.41497 11.8244 6.7778L13.5974 4.96121C13.0798 4.45619 12.4734 4.06394 11.7784 3.78447C11.0833 3.50009 10.3263 3.3579 9.50755 3.3579C8.6791 3.3579 7.91479 3.50254 7.21464 3.79182C6.51446 4.0762 5.90728 4.47825 5.3931 4.99798C4.87888 5.5128 4.48167 6.11833 4.20147 6.81457C3.92127 7.51081 3.78451 8.27078 3.79119 9.0945C3.79787 9.91822 3.94695 10.6782 4.23843 11.3744C4.52992 12.0707 4.93696 12.6786 5.45956 13.1984C5.98213 13.7132 6.59583 14.1153 7.30067 14.4045C8.00546 14.6889 8.77209 14.8311 9.60055 14.8311C10.4242 14.8311 11.1837 14.6914 11.879 14.4119ZM15.5854 14.6105H18.267L19.0488 12.4409H23.3728L24.1898 14.6105H26.8714L22.487 3.57854H19.7982L15.5854 14.6105ZM29.2077 3.57854H33.0593C33.9847 3.57854 34.7853 3.73298 35.4612 4.04188C36.142 4.35077 36.6664 4.7896 37.0343 5.35836C37.4072 5.92711 37.5967 6.60374 37.6031 7.38823C37.6095 8.17272 37.4309 8.8518 37.0673 9.42546C36.7086 9.99912 36.1962 10.4428 35.5302 10.7566C34.8641 11.0655 34.0708 11.22 33.1503 11.22H31.8277L31.8552 14.6105H29.2971L29.2077 3.57854ZM18.7836 31.029L18.6942 19.997H16.1361L16.2255 31.029H18.7836ZM28.9562 31.029H31.9357L31.8463 19.997H29.2882L29.3454 27.0501L24.7753 19.997H21.7958L21.8852 31.029H24.4432L24.3862 23.9906L28.9562 31.029Z" fill="#EB9447"/>
<path d="M39.8176 29.8007L41.008 27.8297C41.3542 28.1042 41.683 28.3298 41.9945 28.5063C42.306 28.6779 42.6122 28.8054 42.9133 28.8887C43.2143 28.9721 43.5199 29.0138 43.8299 29.0138C44.1691 29.0138 44.4594 28.9696 44.7009 28.8814C44.9473 28.7882 45.1351 28.6583 45.2646 28.4916C45.3989 28.3249 45.4651 28.1263 45.4633 27.8959C45.4611 27.6262 45.3696 27.3982 45.1888 27.2119C45.008 27.0207 44.7693 26.854 44.4726 26.7118C44.1807 26.5647 43.8622 26.42 43.5171 26.2778C43.1671 26.1308 42.8097 25.9714 42.4449 25.7998C42.085 25.6282 41.7539 25.4198 41.4515 25.1747C41.1491 24.9246 40.902 24.6231 40.7102 24.27C40.5233 23.917 40.4277 23.488 40.4236 22.983C40.4182 22.3162 40.5783 21.745 40.9039 21.2694C41.2343 20.7889 41.6867 20.4211 42.2612 20.1662C42.8405 19.9063 43.4959 19.7764 44.2274 19.7764C44.7604 19.7764 45.3157 19.8475 45.8933 19.9897C46.4759 20.1318 47.0615 20.3525 47.6501 20.6516L46.6714 22.7329C46.3208 22.5172 45.9415 22.348 45.5336 22.2255C45.1304 22.098 44.7544 22.0342 44.4056 22.0342C44.1295 22.0342 43.8876 22.0759 43.6799 22.1593C43.4771 22.2377 43.3181 22.3505 43.203 22.4976C43.0928 22.6447 43.0385 22.8163 43.04 23.0124C43.0421 23.2625 43.131 23.4806 43.307 23.667C43.4877 23.8484 43.7216 24.0126 44.0086 24.1597C44.2956 24.3068 44.6069 24.4564 44.9424 24.6084C45.2973 24.7603 45.6572 24.9295 46.0221 25.1158C46.3918 25.3021 46.7303 25.5228 47.0376 25.7777C47.3497 26.0278 47.5992 26.3293 47.7862 26.6824C47.978 27.0354 48.0759 27.4595 48.0799 27.9547C48.0852 28.6068 47.9155 29.1829 47.5707 29.683C47.2307 30.1782 46.7494 30.5631 46.1266 30.8377C45.5087 31.1123 44.788 31.2496 43.9643 31.2496C43.2037 31.2496 42.4712 31.127 41.7667 30.8818C41.067 30.6318 40.4173 30.2714 39.8176 29.8007Z" fill="#474B52"/>
<path d="M60.4045 19.997L60.4536 26.0572C60.4623 27.1359 60.2761 28.0626 59.8948 28.8373C59.5183 29.6119 58.9708 30.2077 58.2523 30.6244C57.5387 31.0412 56.678 31.2496 55.6703 31.2496C54.6723 31.2496 53.8106 31.0412 53.0854 30.6244C52.3601 30.2077 51.8006 29.6119 51.4067 28.8373C51.0177 28.0626 50.8188 27.1359 50.8101 26.0572L50.7609 19.997H53.319L53.3654 25.7189C53.3713 26.4544 53.4586 27.0648 53.6273 27.5502C53.8008 28.0307 54.0556 28.3911 54.3918 28.6313C54.7281 28.8716 55.1481 28.9917 55.652 28.9917C56.1607 28.9917 56.5812 28.8716 56.9135 28.6313C57.2459 28.3911 57.4925 28.0307 57.6533 27.5502C57.8189 27.0648 57.8988 26.4544 57.8928 25.7189L57.8464 19.997H60.4045Z" fill="#474B52"/>
<path d="M72.7231 31.0289H69.8961L67.6778 27.2119H66.1299L66.1608 31.0289H63.6028L63.5134 19.997H67.7792C68.69 19.997 69.4687 20.1392 70.1154 20.4236C70.7621 20.708 71.2571 21.1198 71.6007 21.6591C71.949 22.1985 72.1263 22.8481 72.1324 23.6081C72.1384 24.3485 71.9764 24.9834 71.6464 25.513C71.3213 26.0425 70.8522 26.4495 70.2392 26.7338L72.7231 31.0289ZM66.1135 25.1894H67.6251C68.2452 25.1894 68.7165 25.0643 69.0391 24.8143C69.3617 24.5642 69.5211 24.2014 69.5172 23.7258C69.5133 23.2453 69.348 22.88 69.0214 22.63C68.6948 22.3799 68.2214 22.2549 67.6013 22.2549H66.0897L66.1135 25.1894Z" fill="#474B52"/>
<path d="M77.2491 31.0289H74.5675L78.7802 19.997H81.4691L85.8534 31.0289H83.1718L82.3548 28.8593H78.0309L77.2491 31.0289ZM78.8338 26.6015H81.5226L80.1488 22.983L78.8338 26.6015Z" fill="#474B52"/>
<path d="M98.3296 31.0289H95.3501L90.7802 23.9906L90.8372 31.0289H88.2792L88.1897 19.997H91.1693L95.7394 27.0501L95.6822 19.997H98.2402L98.3296 31.0289Z" fill="#474B52"/>
<path d="M110.947 29.6536C110.443 30.1537 109.843 30.546 109.147 30.8304C108.452 31.1098 107.693 31.2496 106.869 31.2496C106.04 31.2496 105.274 31.1074 104.569 30.823C103.864 30.5337 103.25 30.1317 102.728 29.6168C102.205 29.0971 101.798 28.4891 101.507 27.7929C101.215 27.0967 101.066 26.3367 101.06 25.513C101.053 24.6893 101.19 23.9293 101.47 23.233C101.75 22.5368 102.147 21.9313 102.661 21.4164C103.176 20.8967 103.783 20.4947 104.483 20.2103C105.183 19.921 105.947 19.7764 106.776 19.7764C107.595 19.7764 108.352 19.9186 109.047 20.2029C109.742 20.4824 110.348 20.8747 110.866 21.3797L109.093 23.1963C108.814 22.8334 108.472 22.5491 108.068 22.3431C107.665 22.1372 107.225 22.0342 106.751 22.0342C106.31 22.0342 105.901 22.1225 105.525 22.299C105.148 22.4755 104.821 22.7207 104.542 23.0345C104.264 23.3483 104.049 23.716 103.897 24.1377C103.746 24.5593 103.672 25.0153 103.676 25.5056C103.68 26.0057 103.761 26.4666 103.919 26.8883C104.078 27.305 104.299 27.6728 104.582 27.9915C104.866 28.3053 105.197 28.5504 105.577 28.7269C105.956 28.9034 106.366 28.9917 106.807 28.9917C107.282 28.9917 107.717 28.8887 108.113 28.6828C108.513 28.4769 108.852 28.1925 109.13 27.8297L110.947 29.6536Z" fill="#474B52"/>
<path d="M113.682 31.0289L113.593 19.997H120.744L120.762 22.2549H116.169L116.186 24.3656H120.488L120.507 26.6235H116.205L116.222 28.7711H120.888L120.906 31.0289H113.682Z" fill="#474B52"/>
</svg>
