<svg width="48" height="48" viewBox="0 0 48 48" fill="none" xmlns="http://www.w3.org/2000/svg">
<path fill-rule="evenodd" clip-rule="evenodd" d="M24 16C21.8783 16 19.8434 16.8429 18.3431 18.3432C16.8429 19.8434 16 21.8783 16 24C16 26.1217 16.8429 28.1566 18.3431 29.6569C19.8434 31.1572 21.8783 32 24 32C26.1217 32 28.1566 31.1572 29.6569 29.6569C31.1572 28.1566 32 26.1217 32 24C32 21.8783 31.1572 19.8434 29.6569 18.3432C28.1566 16.8429 26.1217 16 24 16ZM21.1716 21.1716C21.9217 20.4214 22.9391 20 24 20C25.0609 20 26.0783 20.4214 26.8284 21.1716C27.5786 21.9217 28 22.9391 28 24C28 25.0609 27.5786 26.0783 26.8284 26.8284C26.0783 27.5786 25.0609 28 24 28C22.9391 28 21.9217 27.5786 21.1716 26.8284C20.4214 26.0783 20 25.0609 20 24C20 22.9391 20.4214 21.9217 21.1716 21.1716Z" fill="#EB9447"/>
<path d="M12.4999 25.3433C13.2429 24.526 13.1827 23.2611 12.3653 22.5181C11.548 21.7751 10.2831 21.8354 9.5401 22.6527L9.5201 22.6747C8.7771 23.492 8.83736 24.7569 9.65469 25.4999C10.472 26.2429 11.7369 26.1827 12.4799 25.3653L12.4999 25.3433Z" fill="#EB9447"/>
<path d="M38.4999 25.3433C39.2429 24.526 39.1827 23.2611 38.3653 22.5181C37.548 21.7751 36.2831 21.8354 35.5401 22.6527L35.5201 22.6747C34.7771 23.492 34.8374 24.7569 35.6547 25.4999C36.472 26.2429 37.7369 26.1827 38.4799 25.3653L38.4999 25.3433Z" fill="#EB9447"/>
<path fill-rule="evenodd" clip-rule="evenodd" d="M15.8589 8C13.1506 7.99993 10.9174 7.99987 9.14988 8.23751C7.29422 8.487 5.65537 9.03093 4.34315 10.3432C3.03093 11.6554 2.487 13.2942 2.23751 15.1499C1.99987 16.9174 1.99993 19.1506 2 21.8589L2 26.1411C1.99993 28.8494 1.99987 31.0826 2.23751 32.8501C2.487 34.7058 3.03093 36.3446 4.34315 37.6569C5.65537 38.9691 7.29422 39.513 9.14988 39.7625C10.9174 40.0001 13.1506 40.0001 15.8589 40H32.1412C34.8494 40.0001 37.0826 40.0001 38.8501 39.7625C40.7058 39.513 42.3446 38.9691 43.6569 37.6569C44.9691 36.3446 45.513 34.7058 45.7625 32.8501C46.0001 31.0826 46.0001 28.8494 46 26.1411V21.8589C46.0001 19.1507 46.0001 16.9174 45.7625 15.1499C45.513 13.2942 44.9691 11.6554 43.6569 10.3432C42.3446 9.03093 40.7058 8.487 38.8501 8.23751C37.0826 7.99987 34.8494 7.99993 32.1411 8H15.8589ZM7.17158 13.1716C7.61672 12.7264 8.27076 12.3917 9.68287 12.2018C11.1525 12.0043 13.115 12 16 12H32C34.885 12 36.8475 12.0043 38.3171 12.2018C39.7292 12.3917 40.3833 12.7264 40.8284 13.1716C41.2736 13.6167 41.6083 14.2708 41.7982 15.6829C41.9958 17.1525 42 19.115 42 22V26C42 28.885 41.9958 30.8475 41.7982 32.3171C41.6083 33.7292 41.2736 34.3833 40.8284 34.8284C40.3833 35.2736 39.7292 35.6083 38.3171 35.7982C36.8475 35.9958 34.885 36 32 36H16C13.115 36 11.1525 35.9958 9.68287 35.7982C8.27076 35.6083 7.61672 35.2736 7.17158 34.8284C6.72644 34.3833 6.39169 33.7292 6.20184 32.3171C6.00425 30.8475 6 28.885 6 26V22C6 19.115 6.00425 17.1525 6.20184 15.6829C6.39169 14.2708 6.72644 13.6167 7.17158 13.1716Z" fill="#EB9447"/>
</svg>
