<svg width="48" height="48" viewBox="0 0 48 48" fill="none" xmlns="http://www.w3.org/2000/svg">
<g clip-path="url(#clip0_718_3297)">
<path fill-rule="evenodd" clip-rule="evenodd" d="M47.9842 23.1221C47.5222 10.2739 36.9609 0 24 0C10.7452 0 0 10.7452 0 24C0 37.2548 10.7452 48 24 48C37.2548 48 48 37.2548 48 24C48 23.8392 47.9984 23.6787 47.9953 23.5187C48.0048 23.3857 48.001 23.2528 47.9842 23.1221ZM4 24C4 12.9543 12.9543 4 24 4C24.5114 4 25.0183 4.01919 25.52 4.0569V9.36104C25.52 10.401 25.1088 11.3963 24.3801 12.1287C23.6517 12.8607 22.6658 13.2701 21.64 13.2701C19.5469 13.2701 17.5415 14.1058 16.0645 15.5901C14.5878 17.0741 13.76 19.0848 13.76 21.1792V26.2442C13.76 27.2841 13.3488 28.2795 12.6201 29.0118C11.8917 29.7438 10.9058 30.1532 9.88 30.1532H4.96442C4.33827 28.2148 4 26.1469 4 24ZM6.7652 34.1532C10.2446 40.0466 16.6606 44 24 44C28.3245 44 32.3285 42.6275 35.6 40.2943V38.0623C35.6 37.4702 35.3658 36.9042 34.9521 36.4885C34.5388 36.0731 33.9803 35.8416 33.4 35.8416C31.3069 35.8416 29.3015 35.0059 27.8245 33.5215C26.3478 32.0376 25.52 30.0269 25.52 27.9325C25.52 25.838 26.3478 23.8274 27.8245 22.3434C29.3015 20.8591 31.3069 20.0234 33.4 20.0234H40.5679C41.618 20.0292 42.6603 20.154 43.6756 20.3928C42.3086 12.888 36.7533 6.84415 29.52 4.77148V9.36104C29.52 11.4555 28.6922 13.4661 27.2155 14.9501C25.7385 16.4344 23.7331 17.2701 21.64 17.2701C20.6142 17.2701 19.6283 17.6796 18.8999 18.4116C18.1712 19.1439 17.76 20.1393 17.76 21.1792V26.2442C17.76 28.3386 16.9322 30.3492 15.4555 31.8332C13.9785 33.3176 11.9731 34.1532 9.88 34.1532H6.7652ZM43.9893 24.6615C42.8923 24.2476 41.7284 24.0305 40.551 24.0234H33.4C32.3742 24.0234 31.3883 24.4328 30.6599 25.1648C29.9312 25.8972 29.52 26.8925 29.52 27.9325C29.52 28.9724 29.9312 29.9678 30.6599 30.7001C31.3883 31.4321 32.3742 31.8416 33.4 31.8416C35.0475 31.8416 36.6256 32.4994 37.7875 33.6671C38.6237 34.5074 39.1952 35.5622 39.4498 36.7014C42.1624 33.4057 43.8409 29.227 43.9893 24.6615Z" fill="#EB9447"/>
</g>
<defs>
<clipPath id="clip0_718_3297">
<rect width="48" height="48" fill="white"/>
</clipPath>
</defs>
</svg>
