<svg width="24" height="24" viewBox="0 0 24 24" fill="none" xmlns="http://www.w3.org/2000/svg">
<path fill-rule="evenodd" clip-rule="evenodd" d="M13 5C9.41015 5 6.5 7.91015 6.5 11.5C6.5 13.2952 7.22644 14.9188 8.40381 16.0962C9.58117 17.2736 11.2048 18 13 18C16.5899 18 19.5 15.0899 19.5 11.5C19.5 7.91015 16.5899 5 13 5ZM4.5 11.5C4.5 6.80558 8.30558 3 13 3C17.6944 3 21.5 6.80558 21.5 11.5C21.5 16.1944 17.6944 20 13 20C11.0135 20 9.1851 19.3176 7.73824 18.176L3.70711 22.2071C3.31658 22.5976 2.68342 22.5976 2.29289 22.2071C1.90237 21.8166 1.90237 21.1834 2.29289 20.7929L6.32402 16.7618C5.18236 15.3149 4.5 13.4865 4.5 11.5Z" fill="#B8BBC1"/>
</svg>
