<svg width="48" height="48" viewBox="0 0 48 48" fill="none" xmlns="http://www.w3.org/2000/svg">
<path fill-rule="evenodd" clip-rule="evenodd" d="M25.0334 5.50954C24.3662 5.26472 23.6338 5.26472 22.9666 5.50954L8.96658 10.6466C7.78527 11.08 7 12.2046 7 13.4629V24.215C7 24.215 7 24.2151 7 24.215C7.00007 27.1809 7.81486 30.0949 9.36276 32.6524C10.9077 35.2051 13.1278 37.3109 15.7955 38.7456L16.3997 39.055L22.6816 42.1284C23.5134 42.5354 24.4866 42.5354 25.3184 42.1284L31.6168 39.047C34.3466 37.7117 36.6537 35.6856 38.3003 33.1857C39.9431 30.6914 40.8696 27.8154 40.9872 24.8577L41 24.1957V13.463C41 12.2046 40.2147 11.08 39.0334 10.6466L25.0334 5.50954ZM21.5887 1.75435C23.1455 1.18312 24.8545 1.18312 26.4113 1.75435L40.4113 6.89137C43.1677 7.90278 45 10.5269 45 13.463V24.2344L44.9857 24.9742L44.9849 24.9934C44.8422 28.6917 43.6857 32.2812 41.6407 35.3859C39.5961 38.4902 36.7396 40.994 33.3746 42.64C33.3746 42.6401 33.3747 42.64 33.3746 42.64L27.0763 45.7215C25.1353 46.671 22.8647 46.671 20.9237 45.7215L14.6089 42.632L13.9378 42.2883L13.921 42.2793C10.622 40.5096 7.86417 37.9016 5.94072 34.7236C4.01704 31.5452 3.00008 27.9156 3 24.2151V13.4629C3 10.5269 4.83229 7.90278 7.58869 6.89138L21.5887 1.75435ZM30.8944 16.2111C31.8824 16.7051 32.2828 17.9064 31.7889 18.8944L26.4093 29.6534C25.4942 31.4837 23.0539 31.8823 21.605 30.4334L17.5858 26.4142C16.8047 25.6331 16.8047 24.3668 17.5858 23.5857C18.3668 22.8047 19.6332 22.8047 20.4142 23.5857L23.4521 26.6236L28.2111 17.1055C28.7051 16.1176 29.9065 15.7171 30.8944 16.2111Z" fill="#EB9447"/>
</svg>
