<svg width="32" height="32" viewBox="0 0 32 32" fill="none" xmlns="http://www.w3.org/2000/svg">
<path d="M29.3332 16C29.3332 19.5362 27.9284 22.9276 25.4279 25.4281C22.9274 27.9285 19.5361 29.3333 15.9998 29.3333C12.4636 29.3333 9.07223 27.9285 6.57175 25.4281C4.07126 22.9276 2.6665 19.5362 2.6665 16C2.6665 12.4637 4.07126 9.07235 6.57175 6.57187C9.07223 4.07138 12.4636 2.66663 15.9998 2.66663C19.5361 2.66663 22.9274 4.07138 25.4279 6.57187C27.9284 9.07235 29.3332 12.4637 29.3332 16ZM16.4782 12.51C15.1815 13.05 12.5882 14.1666 8.7015 15.86C8.0715 16.11 7.73984 16.3566 7.70984 16.5966C7.65984 17.0016 8.16817 17.1616 8.85984 17.38L9.1515 17.4716C9.8315 17.6933 10.7482 17.9516 11.2232 17.9616C11.6565 17.9716 12.1382 17.795 12.6698 17.4283C16.3015 14.9766 18.1765 13.7383 18.2932 13.7116C18.3765 13.6916 18.4932 13.6683 18.5698 13.7383C18.6482 13.8066 18.6398 13.9383 18.6315 13.9733C18.5815 14.1883 16.5865 16.0416 15.5548 17.0016C15.2332 17.3016 15.0048 17.5133 14.9582 17.5616C14.8554 17.6666 14.751 17.77 14.6448 17.8716C14.0115 18.4816 13.5382 18.9383 14.6698 19.685C15.2148 20.045 15.6515 20.34 16.0865 20.6366C16.5598 20.96 17.0332 21.2816 17.6465 21.685C17.8015 21.785 17.9515 21.8933 18.0965 21.9966C18.6482 22.39 19.1465 22.7433 19.7582 22.6866C20.1148 22.6533 20.4832 22.32 20.6698 21.32C21.1115 18.9583 21.9798 13.8433 22.1798 11.735C22.192 11.5597 22.1848 11.3836 22.1582 11.21C22.1425 11.0698 22.0747 10.9407 21.9682 10.8483C21.8165 10.7436 21.6357 10.6894 21.4515 10.6933C20.9515 10.7016 20.1798 10.97 16.4782 12.51Z" fill="#7C828D"/>
</svg>
