<svg width="48" height="48" viewBox="0 0 48 48" fill="none" xmlns="http://www.w3.org/2000/svg">
<path d="M12 14C10.8954 14 10 14.8954 10 16C10 17.1046 10.8954 18 12 18H20C21.1046 18 22 17.1046 22 16C22 14.8954 21.1046 14 20 14H12Z" fill="#EB9447"/>
<path d="M35.9821 22C34.8775 22 33.9821 22.8954 33.9821 24C33.9821 25.1046 34.8775 26 35.9821 26H36.0021C37.1066 26 38.0021 25.1046 38.0021 24C38.0021 22.8954 37.1066 22 36.0021 22H35.9821Z" fill="#EB9447"/>
<path fill-rule="evenodd" clip-rule="evenodd" d="M43.9581 31.9587C43.9727 31.7918 43.9823 31.6168 43.9885 31.4249C45.0888 30.7887 45.8935 29.6666 45.9911 28.2694L45.9916 28.2621L45.9921 28.2548C46.0002 28.1253 46.0001 27.9847 46 27.8677V20.1323C46.0001 20.0154 46.0002 19.8748 45.9921 19.7453L45.9915 19.736L45.9909 19.7267C45.8907 18.3334 45.0882 17.2116 43.9885 16.5753C43.9823 16.3833 43.9728 16.2083 43.9581 16.0413C43.4929 10.7234 39.2766 6.50713 33.9587 6.04187C33.4788 5.99988 32.933 5.99993 32.1071 6.00001L19.8866 6.00001C16.7036 5.99998 14.1568 5.99996 12.1215 6.21449C10.0266 6.43531 8.24453 6.90131 6.69066 7.98934C5.63955 8.72533 4.72532 9.63956 3.98933 10.6907C2.9013 12.2445 2.4353 14.0266 2.21447 16.1215C1.99995 18.1568 1.99997 20.7036 2 23.8866V24.1135C1.99997 27.2964 1.99995 29.8433 2.21447 31.8785C2.4353 33.9735 2.9013 35.7555 3.98933 37.3094C4.72532 38.3605 5.63955 39.2747 6.69066 40.0107C8.24453 41.0987 10.0266 41.5647 12.1215 41.7855C14.1567 42.0001 16.7036 42 19.8865 42L32.1071 42C32.933 42.0001 33.4788 42.0001 33.9587 41.9582C39.2766 41.4929 43.4929 37.2766 43.9581 31.9587ZM33.6101 10.0266C33.3276 10.0019 32.9709 10 32 10H20C16.6775 10 14.3418 10.0026 12.5408 10.1924C10.7754 10.3785 9.75559 10.7264 8.98497 11.2659C8.31608 11.7343 7.7343 12.3161 7.26594 12.985C6.72634 13.7556 6.37852 14.7754 6.19244 16.5408C6.0026 18.3418 6 20.6775 6 24C6 27.3225 6.0026 29.6582 6.19244 31.4592C6.37852 33.2246 6.72634 34.2444 7.26594 35.015C7.7343 35.6839 8.31608 36.2657 8.98497 36.7341C9.75559 37.2737 10.7754 37.6215 12.5408 37.8076C14.3418 37.9974 16.6775 38 20 38H32C32.9709 38 33.3276 37.9981 33.6101 37.9734C36.8632 37.6888 39.4684 35.1985 39.9283 32H36.46C31.9316 32 28 28.5556 28 24C28 19.4445 31.9296 16 36.462 16H39.9283C39.4684 12.8016 36.8632 10.3113 33.6101 10.0266ZM41.666 20C41.754 20 41.8054 20.0001 41.8437 20.0004L41.8716 20.0008C41.9376 20.0063 41.9791 20.0287 41.9999 20.0447L42 20.166V27.834L41.9999 27.9559C41.9785 27.9719 41.9369 27.9937 41.8719 27.9992L41.8429 27.9996C41.8049 28 41.754 28 41.666 28H36.46C33.8564 28 32 26.0725 32 24C32 21.9276 33.8544 20 36.462 20H41.666Z" fill="#EB9447"/>
</svg>
